<svg xmlns="http://www.w3.org/2000/svg" fill="none" viewBox="0 0 20 20"><path fill="#44BEDF" d="M7.888 1a1.744 1.744 0 0 0-1.61 2.415 1.74 1.74 0 0 0 1.61 1.079H9.63V2.747A1.743 1.743 0 0 0 7.888 1m0 4.659H3.243c-.963 0-1.743.782-1.743 1.748 0 .964.78 1.747 1.743 1.747h4.646c.961 0 1.741-.783 1.741-1.747 0-.966-.78-1.748-1.742-1.748"/><path fill="#2EB67D" d="M18.92 7.407c0-.966-.78-1.748-1.742-1.748s-1.743.782-1.743 1.748v1.747h1.743a1.76 1.76 0 0 0 1.233-.513 1.75 1.75 0 0 0 .51-1.234m-4.646 0v-4.66A1.754 1.754 0 0 0 13.2 1.134 1.7 1.7 0 0 0 12.532 1c-.963 0-1.743.783-1.743 1.747v4.659A1.745 1.745 0 0 0 13.2 9.02a1.74 1.74 0 0 0 .943-.945c.087-.213.132-.44.132-.668"/><path fill="#ECB22E" d="M12.532 18.473a1.73 1.73 0 0 0 1.233-.512 1.8 1.8 0 0 0 .377-.567 1.77 1.77 0 0 0 0-1.336 1.754 1.754 0 0 0-1.61-1.079h-1.743v1.747c0 .964.78 1.747 1.743 1.747m0-4.659h4.646a1.745 1.745 0 0 0 1.61-2.415 1.74 1.74 0 0 0-1.61-1.079h-4.646a1.745 1.745 0 0 0-1.61 2.414 1.75 1.75 0 0 0 1.61 1.08"/><path fill="#E01E5A" d="M1.5 12.067a1.75 1.75 0 0 0 .51 1.234 1.755 1.755 0 0 0 1.233.513 1.76 1.76 0 0 0 1.232-.513 1.75 1.75 0 0 0 .51-1.234V10.32H3.243c-.963 0-1.743.782-1.743 1.747m4.646 0v4.659a1.744 1.744 0 0 0 2.41 1.614 1.75 1.75 0 0 0 .942-.946c.088-.212.132-.44.132-.668v-4.659a1.73 1.73 0 0 0-.51-1.235 1.75 1.75 0 0 0-1.232-.512c-.962 0-1.742.782-1.742 1.747"/></svg>